# xmcd CD database file
#
# Track frame offsets:
#	150
#	15419
#	33227
#	50529
#	68708
#	83900
#	95558
#	113166
#	129997
#	152966
#	170415
#
# Disc length: 2439 seconds
#
# Revision: 0
# Processed by: cddbd v1.5.2PL0 Copyright (c) Steve Scherf et al.
# Submitted via: CDex 1.70beta2
#
DISCID=8409850b
DTITLE=Mats Möller - Världens Bästa
DYEAR=2007
DGENRE=Blues
TTITLE0=Jag är din man
TTITLE1=Världens bästa
TTITLE2=Du gick förbi mig
TTITLE3=Nästa gång
TTITLE4=Vill du inte ha det nu?
TTITLE5=Måste sluta tänka på dig
TTITLE6=Ibland
TTITLE7=Mer än ingenting
TTITLE8=Stadshotellet stänger elva
TTITLE9=Älska dig väl
TTITLE10=Lyckligt slut
EXTD=YEAR: 2007
EXTT0=
EXTT1=
EXTT2=
EXTT3=
EXTT4=
EXTT5=
EXTT6=
EXTT7=
EXTT8=
EXTT9=
EXTT10=
PLAYORDER=
